<svg id="Kaas" xmlns="http://www.w3.org/2000/svg" viewBox="0 0 90.5 142.14"><defs><style>.cls-1{fill:#38393f;}.cls-2{fill:#65697a;}.cls-3{fill:#2d2e33;}.cls-4{fill:#626370;}.cls-5{fill:#404147;}.cls-6{font-size:36px;fill:#fff;font-family:CenturyGothic, Century Gothic;}</style></defs><title>Assets</title><path class="cls-1" d="M0,40.71H90.5a0,0,0,0,1,0,0v88.17a6.37,6.37,0,0,1-6.37,6.37H6.37A6.37,6.37,0,0,1,0,128.87V40.71a0,0,0,0,1,0,0Z"/><ellipse class="cls-2" cx="45.25" cy="40.71" rx="45.25" ry="9.27"/><rect class="cls-3" x="33.5" y="17.12" width="21.5" height="21.5"/><ellipse class="cls-1" cx="43.62" cy="18.8" rx="24.87" ry="4.45"/><polyline class="cls-1" points="18.75 3.72 18.75 18.8 68.48 18.8 68.48 3.72"/><ellipse class="cls-4" cx="43.62" cy="3.72" rx="24.87" ry="3.59"/><path class="cls-3" d="M33.5,38.62s9.33,4.55,21.5,0"/><path class="cls-5" d="M59,40.34c-12.17,4.55-29.5,0-29.5,0l4-4.43s12.5,3.66,21.5,0Z"/><text class="cls-6" transform="translate(4.5 100.68)">1 Kg</text><path class="cls-1" d="M3,134.36s43.75,17.5,84.25,0Z"/></svg>